# xmcd CD database file
#
# Track frame offsets:
#	150
#	18982
#	42565
#	58168
#	77442
#	107144
#	122681
#	148283
#	168329
#	181076
#	202398
#	230618
#	248466
#
# Disc length: 3739 seconds
#
# Revision: 1
# Processed by: cddbd v1.5.2PL0 Copyright (c) Steve Scherf et al.
# Submitted via: CDex 1.70beta2
#
DISCID=b40e990d
DTITLE=Various Artist - Musiques du Monde
DYEAR=1900
DGENRE=New Age
TTITLE0=CELTICA
TTITLE1=AKARUI SOR
TTITLE2=AFRICA'E
TTITLE3=AMERINDIA
TTITLE4=SANTAL
TTITLE5=CAVAQUINHOS
TTITLE6=EARTH MOTHER SONG
TTITLE7=BRASILIA
TTITLE8=GAELLE
TTITLE9=ATATAKAI ASA
TTITLE10=KENYWE
TTITLE11=COSTA VERDE
TTITLE12=MEEUCK CORROBOREE
EXTD=
EXTT0=
EXTT1=
EXTT2=
EXTT3=
EXTT4=
EXTT5=
EXTT6=
EXTT7=
EXTT8=
EXTT9=
EXTT10=
EXTT11=
EXTT12=
PLAYORDER=
